<?xml version="1.0" encoding="UTF-8" standalone="no"?>
<svg width="49px" height="39px" viewBox="0 0 49 39" version="1.1" xmlns="http://www.w3.org/2000/svg" xmlns:xlink="http://www.w3.org/1999/xlink">
    <!-- Generator: Sketch 43.2 (39069) - http://www.bohemiancoding.com/sketch -->
    <title>Group 2</title>
    <desc>Created with Sketch.</desc>
    <defs></defs>
    <g id="Page-1" stroke="none" stroke-width="1" fill="none" fill-rule="evenodd">
        <g id="Group-2">
            <g id="Group-5">
                <path d="M4.82298778,1.23179482 C23.4754741,-5.73695088 65.2432575,22.590133 37.1744838,35.5877484 C26.5237674,40.5198241 12.5855668,40.9290234 5.30971344,30.4628478 C0.659629161,23.7738965 -3.62471555,4.72153039 4.82298778,1.23179482" id="Fill-1" fill="#92DEFF"></path>
                <path d="M27.1113148,0.928451062 C24.4723346,0.52368184 21.9742731,0.668242277 19.6593131,1.26980022 C19.3040034,1.36213237 18.9549515,1.46915373 18.6084492,1.58270362 C30.862579,4.89243813 43.529035,13.8829315 45.9487568,22.7505485 C46.1167931,22.5448996 46.2808892,22.3373854 46.4375685,22.126607 C47.1674252,21.144995 47.7732828,20.1081236 48.2321955,19.0197234 C51.1108302,11.4848604 34.1602613,2.01032272 27.1113148,0.928451062" id="Fill-3" fill="#6778F2"></path>
                <path d="M19.6593131,1.26980022 C13.25748,2.93364422 8.25672145,8.09328599 5.54774547,14.7927296 C-4.30914454,39.169583 35.3666456,37.0198294 46.4375685,22.126607 C44.4869574,13.3648455 31.760472,4.34310847 19.6593131,1.26980022" id="Fill-4" fill="#3B69F2"></path>
            </g>
            <path d="M29.5521281,12.8201791 C28.0328487,12.8201791 26.663759,13.4776959 25.7102402,14.5243601 C24.7564897,13.4776959 23.3873999,12.8201791 21.8681205,12.8201791 C18.9941214,12.8201791 16.655984,15.1723173 16.655984,18.063526 L16.655984,24.492968 L19.3964812,24.492968 L19.3964812,18.063526 C19.3964812,16.6925335 20.5052887,15.5770865 21.8681205,15.5770865 C23.2309524,15.5770865 24.3399916,16.6925335 24.3399916,18.063526 L24.3399916,24.492968 L27.0804888,24.492968 L27.0804888,18.063526 C27.0804888,16.6925335 28.1892962,15.5770865 29.5521281,15.5770865 C30.91496,15.5770865 32.0237674,16.6925335 32.0237674,18.063526 L32.0237674,24.492968 L34.7642646,24.492968 L34.7642646,18.063526 C34.7642646,15.1723173 32.4261273,12.8201791 29.5521281,12.8201791" id="Fill-6" fill="#FFFFFF"></path>
            <path d="M15.4197008,8.89279847 C16.519469,8.89279847 17.3992836,9.77788141 17.3992836,10.8842351 C17.3992836,11.9661067 16.519469,12.8511897 15.4197008,12.8511897 C14.3445006,12.8511897 13.4646861,11.9661067 13.4646861,10.8842351 C13.4646861,9.77788141 14.3445006,8.89279847 15.4197008,8.89279847" id="Fill-7" fill="#FFFFFF"></path>
        </g>
    </g>
</svg>